<svg width="41" height="41" viewBox="0 0 41 41" fill="none" xmlns="http://www.w3.org/2000/svg">
<g clip-path="url(#clip0_1_172)">
<path d="M34.0628 13.4734L26.8511 6.2617C26.3597 5.77069 25.5647 5.7703 25.0733 6.26084L6.49896 24.7933L8.27591 26.5745L25.961 8.9292L31.3957 14.3644L13.7509 32.0491L15.5316 33.826L34.0641 15.2512C34.5542 14.7597 34.5538 13.964 34.0628 13.4734Z" fill="#2F80ED"/>
<path d="M36.2016 5.88486L34.4406 4.12385C34.0306 3.71377 33.3941 3.63705 32.8985 3.93807L26.8188 7.62783L28.1241 9.77837L33.3597 6.60056L33.7245 6.96572L30.5471 12.2013L32.6977 13.5066L36.3874 7.42689C36.6884 6.93142 36.6116 6.29447 36.2016 5.88486Z" fill="#2F80ED"/>
<path d="M17.8784 34.3967L5.9287 22.447C5.43768 21.9556 4.64105 21.9556 4.15011 22.447C3.6587 22.9381 3.6587 23.7347 4.15011 24.2256L16.0998 36.1753C16.3451 36.421 16.667 36.5438 16.9891 36.5438C17.3106 36.5438 17.6331 36.4209 17.8784 36.1753C18.3698 35.6844 18.3698 34.8877 17.8784 34.3967Z" fill="#2F80ED"/>
<path d="M17.5643 23.4121L5.82532 35.1943L7.60716 36.9696L19.3461 25.1874L17.5643 23.4121Z" fill="#2F80ED"/>
<path d="M15.0927 20.9404L3.35376 32.7227L5.1356 34.498L16.8746 22.7157L15.0927 20.9404Z" fill="#2F80ED"/>
<path d="M10.5408 38.0863L2.23893 29.784C1.74753 29.2929 0.95089 29.2922 0.459875 29.784C-0.0311399 30.275 -0.0311399 31.0711 0.459875 31.5625L8.76174 39.8649C9.00744 40.1106 9.32947 40.2334 9.65142 40.2334C9.97298 40.2334 10.2955 40.1105 10.5407 39.8649C11.0318 39.3739 11.0318 38.5777 10.5408 38.0863Z" fill="#2F80ED"/>
<path d="M39.7232 0.602074C39.2318 0.110669 38.436 0.110669 37.9446 0.602074L33.542 5.00457C33.0506 5.49558 33.0506 6.29222 33.542 6.78316C33.7877 7.02886 34.1093 7.15167 34.4313 7.15167C34.7533 7.15167 35.0753 7.02878 35.3206 6.78316L39.7231 2.38066C40.2146 1.88973 40.2146 1.09309 39.7232 0.602074Z" fill="#2F80ED"/>
<path d="M14.6914 18.5465L12.9125 20.3253L19.9983 27.411L21.7771 25.6322L14.6914 18.5465Z" fill="#2F80ED"/>
</g>
<defs>
<clipPath id="clip0_1_172">
<rect width="40" height="40" fill="white" transform="translate(0.0916748 0.233398)"/>
</clipPath>
</defs>
</svg>
