<svg width="40" height="41" viewBox="0 0 40 41" fill="none" xmlns="http://www.w3.org/2000/svg">
<g clip-path="url(#clip0_1_91)">
<path d="M29.2906 0.233398H10.7552C9.9968 0.233398 9.38219 0.848008 9.38219 1.60637V8.33402C9.38219 9.09238 9.9968 9.70699 10.7552 9.70699H29.2906C30.049 9.70699 30.6636 9.09238 30.6636 8.33402V1.60637C30.6636 0.848008 30.049 0.233398 29.2906 0.233398ZM27.9177 6.96105H12.1281V2.97941H27.9176V6.96105H27.9177Z" fill="#855FCE"/>
<path d="M27.3227 8.38013H24.5766V14.6959H27.3227V8.38013Z" fill="#855FCE"/>
<path d="M15.4234 8.38013H12.6773V14.6959H15.4234V8.38013Z" fill="#855FCE"/>
<path d="M29.9771 13.3226H10.0229C8.76109 13.3226 7.73453 14.3492 7.73453 15.611V37.9451C7.73453 39.2069 8.76109 40.2334 10.0229 40.2334H29.9771C31.2389 40.2334 32.2655 39.2069 32.2655 37.9451V15.611C32.2655 14.3492 31.2389 13.3226 29.9771 13.3226ZM29.5195 37.4874H10.4805V16.0686H29.5195V37.4874Z" fill="#855FCE"/>
<path d="M20 20.5079C19.2416 20.5079 18.627 21.1225 18.627 21.8809V31.675C18.627 32.4333 19.2416 33.0479 20 33.0479C20.7583 33.0479 21.373 32.4333 21.373 31.675V21.8809C21.373 21.1225 20.7583 20.5079 20 20.5079Z" fill="#855FCE"/>
<path d="M24.897 25.405H15.103C14.3446 25.405 13.73 26.0196 13.73 26.778C13.73 27.5364 14.3446 28.151 15.103 28.151H24.897C25.6558 28.151 26.27 27.5364 26.27 26.778C26.27 26.0196 25.6554 25.405 24.897 25.405Z" fill="#855FCE"/>
</g>
<defs>
<clipPath id="clip0_1_91">
<rect width="40" height="40" fill="white" transform="translate(0 0.233398)"/>
</clipPath>
</defs>
</svg>
