<svg width="41" height="41" viewBox="0 0 41 41" fill="none" xmlns="http://www.w3.org/2000/svg">
<g clip-path="url(#clip0_1_137)">
<path d="M37.0289 5.8022C35.0115 3.76275 32.2862 2.63525 29.3551 2.62697C26.3381 2.61689 23.3147 3.76001 20.8922 5.79212C18.1372 3.36595 15.645 2.18298 13.2982 2.18298C10.0207 2.18298 6.97981 3.47384 4.75645 5.7972C3.08536 7.4683 1.94036 9.66236 1.44403 12.1426C1.29544 12.888 1.77841 13.6127 2.52387 13.7619C3.26841 13.9096 3.99403 13.4275 4.14317 12.682C4.53216 10.7367 5.417 9.02884 6.72348 7.72197C8.44364 5.9247 10.779 4.93525 13.2983 4.93525C15.1235 4.93525 17.3345 6.16509 19.8465 8.56642C20.1281 8.84947 20.4983 9.00587 20.8886 9.00634C20.8891 9.00634 20.8901 9.00634 20.8904 9.00634C21.2799 9.00634 21.65 8.85087 21.9322 8.56877C23.9601 6.5408 26.6528 5.37931 29.3226 5.37931C29.3313 5.37931 29.3395 5.37931 29.3478 5.37931C31.5726 5.38525 33.5524 6.20134 35.0569 7.72197C36.8221 9.56556 37.7941 11.9802 37.7941 14.5224C37.7941 17.0665 36.8001 19.5413 35.0946 21.2852L20.9128 34.9944L9.66739 24.1292C9.12106 23.6013 8.24997 23.6173 7.72153 24.1623C7.19356 24.7091 7.20872 25.5802 7.75505 26.1081L19.9568 37.8971C20.2233 38.1549 20.5683 38.2838 20.9128 38.2838C21.2572 38.2838 21.6022 38.1549 21.8692 37.8976L37.0344 23.237C39.266 20.9559 40.5458 17.7797 40.5458 14.5224C40.5458 11.2677 39.3022 8.1765 37.0289 5.8022Z" fill="#27AE60"/>
<path d="M38.0688 17.6877H26.9679C26.589 17.6877 26.2275 17.8432 25.9679 18.1184L21.7949 22.5308L16.9885 11.6281C16.7821 11.1597 16.3326 10.8446 15.822 10.8102C15.3142 10.7776 14.8239 11.0276 14.5564 11.4639L10.739 17.6877H1.92201C1.16185 17.6877 0.545837 18.3037 0.545837 19.0639C0.545837 19.824 1.16185 20.4401 1.92201 20.4401H11.5087C11.9872 20.4401 12.4317 20.1915 12.6817 19.7832L15.5294 15.141L20.1125 25.5364C20.2983 25.9584 20.6831 26.2589 21.1372 26.3373C21.2152 26.3506 21.2936 26.3575 21.3716 26.3575C21.7469 26.3575 22.1097 26.2043 22.3716 25.9272L27.5606 20.44H38.0689C38.829 20.44 39.4451 19.8239 39.4451 19.0638C39.4449 18.3037 38.8289 17.6877 38.0688 17.6877Z" fill="#27AE60"/>
</g>
<defs>
<clipPath id="clip0_1_137">
<rect width="40" height="40" fill="white" transform="translate(0.545837 0.233398)"/>
</clipPath>
</defs>
</svg>
