<svg width="30" height="31" viewBox="0 0 30 31" fill="none" xmlns="http://www.w3.org/2000/svg">
<path d="M30 30.75H0V0.75H30V30.75Z" stroke="#E5E7EB"/>
<path d="M1.875 2.625C2.91211 2.625 3.75 3.46289 3.75 4.5V24.1875C3.75 24.7031 4.17188 25.125 4.6875 25.125H28.125C29.1621 25.125 30 25.9629 30 27C30 28.0371 29.1621 28.875 28.125 28.875H4.6875C2.09766 28.875 0 26.7773 0 24.1875V4.5C0 3.46289 0.837891 2.625 1.875 2.625ZM7.5 8.25C7.5 7.21289 8.33789 6.375 9.375 6.375H20.625C21.6621 6.375 22.5 7.21289 22.5 8.25C22.5 9.28711 21.6621 10.125 20.625 10.125H9.375C8.33789 10.125 7.5 9.28711 7.5 8.25ZM9.375 12H16.875C17.9121 12 18.75 12.8379 18.75 13.875C18.75 14.9121 17.9121 15.75 16.875 15.75H9.375C8.33789 15.75 7.5 14.9121 7.5 13.875C7.5 12.8379 8.33789 12 9.375 12ZM9.375 17.625H24.375C25.4121 17.625 26.25 18.4629 26.25 19.5C26.25 20.5371 25.4121 21.375 24.375 21.375H9.375C8.33789 21.375 7.5 20.5371 7.5 19.5C7.5 18.4629 8.33789 17.625 9.375 17.625Z" fill="#374151"/>
</svg>
