<svg width="38" height="31" viewBox="0 0 38 31" fill="none" xmlns="http://www.w3.org/2000/svg">
<g clip-path="url(#clip0_1_414)">
<path d="M12.4375 21.375C19.1699 21.375 24.625 16.7578 24.625 11.0625C24.625 5.36719 19.1699 0.75 12.4375 0.75C5.70505 0.75 0.24997 5.36719 0.24997 11.0625C0.24997 13.3242 1.1113 15.416 2.57028 17.1211C2.3652 17.6719 2.06052 18.1582 1.73825 18.5684C1.457 18.9316 1.16989 19.2129 0.958954 19.4062C0.853486 19.5 0.765595 19.5762 0.707001 19.623C0.677704 19.6465 0.654267 19.6641 0.642548 19.6699L0.630829 19.6816C0.308564 19.9219 0.167939 20.3438 0.296845 20.7246C0.425751 21.1055 0.783173 21.375 1.18747 21.375C2.46481 21.375 3.75388 21.0469 4.82614 20.6426C5.3652 20.4375 5.86911 20.209 6.30856 19.9746C8.10739 20.8652 10.1992 21.375 12.4375 21.375ZM26.5 11.0625C26.5 17.6426 20.6933 22.5996 13.8144 23.1914C15.2383 27.5508 19.9609 30.75 25.5625 30.75C27.8008 30.75 29.8925 30.2402 31.6972 29.3496C32.1367 29.584 32.6347 29.8125 33.1738 30.0176C34.2461 30.4219 35.5351 30.75 36.8125 30.75C37.2168 30.75 37.58 30.4863 37.7031 30.0996C37.8261 29.7129 37.6914 29.291 37.3633 29.0508L37.3515 29.0391C37.3398 29.0273 37.3164 29.0156 37.2871 28.9922C37.2285 28.9453 37.1406 28.875 37.0351 28.7754C36.8242 28.582 36.5371 28.3008 36.2558 27.9375C35.9336 27.5273 35.6289 27.0352 35.4238 26.4902C36.8828 24.791 37.7441 22.6992 37.7441 20.4316C37.7441 14.9941 32.7695 10.5352 26.459 10.1484C26.4824 10.4473 26.4941 10.752 26.4941 11.0566L26.5 11.0625Z" fill="#374151"/>
</g>
<defs>
<clipPath id="clip0_1_414">
<path d="M0.25 0.75H37.75V30.75H0.25V0.75Z" fill="white"/>
</clipPath>
</defs>
</svg>
