<svg width="60" height="58" viewBox="0 0 60 58" fill="none" xmlns="http://www.w3.org/2000/svg">
<g clip-path="url(#clip0_1_269)">
<mask id="mask0_1_269" style="mask-type:luminance" maskUnits="userSpaceOnUse" x="0" y="0" width="60" height="58">
<path d="M60 0H0V58H60V0Z" fill="white"/>
</mask>
<g mask="url(#mask0_1_269)">
<path d="M44.656 51.7943C37.8303 71.5489 19.6239 77.6415 9.99771 53.1113C8.66973 49.739 12.1307 48.4886 14.5528 46.9986C16.211 45.981 17.0849 45.103 16.9817 44.1918C16.5 39.9083 14.4427 27.9757 14.4427 27.9757L14.2362 27.5899C14.2362 27.5899 14.2844 27.4835 14.0849 27.6698C13.8784 27.8693 13.4037 29.9445 11.539 29.9445C9.85321 29.9445 8.15367 29.2195 7.34175 24.2044C7.03211 22.3886 7.19725 17.6262 9.28899 16.7615C10.1491 16.409 10.9404 16.2826 11.711 16.7083C12.4885 17.134 10.8165 15.245 19.4174 8.32755C25.0046 3.81792 33.8326 3.15943 37.3968 3.92434C40.961 4.68925 44.5183 6.37204 46.094 9.94383C48.0069 14.2672 44.3119 17.5464 45.1307 27.4037C44.9794 30.9688 45.1858 38.7908 35.0436 41.4115C33.117 41.9103 33.7156 44.6308 36.6055 45.2959C41.2156 46.6927 44.656 50.1048 44.656 51.8076" fill="white"/>
<path fill-rule="evenodd" clip-rule="evenodd" d="M44.656 21.0981L44.6628 21.005C44.945 18.5839 45.2271 16.2359 46.5275 14.1274C46.9748 14.4201 46.9197 14.7926 46.7821 15.1385C45.4128 18.544 45.5436 22.0825 45.6674 25.621L45.695 26.5522C45.8394 30.9687 44.6972 34.9862 41.656 38.3584C40.5963 39.529 39.1927 40.3405 37.7683 41.0389C36.2959 41.7706 35.9862 42.3758 36.4472 43.9389L36.5023 44.1118C36.5986 44.3713 36.695 44.6373 36.4335 44.8967C36.1238 45.2027 35.7798 45.1162 35.4151 45.0164L35.3738 45.0098C31.9623 44.0864 28.7634 42.5448 25.9472 40.4669C25.5344 40.1742 25.2041 39.7818 24.8807 39.396L24.8601 39.3694C24.6881 39.1699 24.6537 38.8506 24.8945 38.6777C25.1216 38.5114 25.2936 38.6444 25.4931 38.7974L25.5619 38.8573C27.0644 40.0357 28.8879 40.7681 30.8119 40.9657C31.7339 41.0589 32.6422 41.0256 33.5642 40.9923C34.0734 40.9724 34.5826 40.9524 35.0986 40.9591C35.8005 40.9591 36.3853 40.6465 36.9358 40.3472L37.1284 40.2407C39.0413 39.2098 40.8647 38.0591 42.0963 36.2034C43.2041 34.5405 43.8784 32.7313 44.2706 30.8224C44.7661 28.4212 44.7248 25.9868 44.6835 23.5192C44.6628 22.721 44.6491 21.9096 44.6491 21.0981H44.656ZM10.0183 16.0829C11.5252 15.9699 12.3578 16.8279 13.0665 17.8323C13.9065 19.0594 14.4346 20.461 14.6078 21.9229C14.6422 22.169 14.6766 22.4284 14.5252 22.6745C14.2156 22.7144 14.1881 22.4749 14.1812 22.302C14.1468 20.9251 13.5138 19.7279 12.8807 18.5706C12.4266 17.7391 11.7661 16.9343 10.7202 16.7348C9.5367 16.502 8.44954 17.5329 7.91284 18.8765C6.91514 21.3774 7.08715 23.8385 8.00917 26.2596C8.40826 27.3171 8.91055 28.3946 9.92202 29.1329C10.9404 29.8846 12.172 29.7515 12.922 28.7538L13.0596 28.5875C13.1972 28.4146 13.3349 28.2483 13.4037 28.0554C13.5482 27.6696 13.7752 27.3105 14.1812 27.3637C14.6491 27.4302 14.7316 27.9157 14.7798 28.2949C15.2067 31.7792 15.7114 35.2543 16.2936 38.7176L16.6995 41.2983C16.8784 42.4357 17.0849 44.0719 16.9472 44.7637C16.9384 44.8122 16.9315 44.861 16.9266 44.91C16.8991 45.0963 16.8853 45.2426 16.6376 45.2758C16.3005 45.329 16.156 45.1428 16.1078 44.8501C15.9495 43.7194 15.9014 43.2804 15.8326 41.5511C15.7706 39.8749 15.4472 38.2254 15.117 36.5692L14.7729 34.7733C14.4151 32.7247 14.0642 30.6495 14.0298 28.3215L13.8922 28.521C13.3693 29.2726 12.9495 29.8846 12.2064 30.1173C11.6548 30.3217 11.0503 30.3512 10.4801 30.2018C9.90998 30.0523 9.40371 29.7316 9.0344 29.2859C8.06482 28.2273 7.38371 26.9517 7.05275 25.5745C6.47477 23.313 6.37156 21.1114 7.11468 18.8832C7.47248 17.8123 8.74541 15.91 10.0183 16.0896V16.0829ZM12.3991 24.5634C12.7018 24.7763 12.9771 24.9625 13.2248 24.2043C13.1491 21.3974 12.2133 19.6015 10.7615 19.5284C11.5321 20.4995 12.2752 21.444 12.344 22.7543C12.0577 22.6129 11.8065 22.4132 11.6078 22.169C11.4702 22.0226 11.3326 21.8763 11.1605 21.7699L10.9541 21.6102C10.6239 21.3708 10.2867 21.118 9.72936 21.3109C9.99082 21.6967 10.3486 21.9761 10.7133 22.2421C11.1261 22.5547 11.539 22.8607 11.7867 23.3396C11.0573 23.8518 10.7408 24.5169 11.1193 25.3284C11.4495 26.0268 11.9381 26.6054 12.9014 26.6453C12.8601 26.2263 12.578 25.9203 12.2959 25.621C11.9518 25.2618 11.6284 24.916 11.7798 24.3839C12 24.2841 12.2064 24.4304 12.3991 24.5634Z" fill="black"/>
<path d="M72 87.3653L-17.7041 87.1458C-17.7041 87.1458 -15.4128 73.1978 -11.0849 65.2694C-6.06193 56.0439 0.860088 47.5767 16.4381 43.965C17.0573 43.8254 23.0505 46.9116 25.2729 47.9758C26.305 48.468 30.578 48.1687 30.578 48.1687L38.2018 44.5171C38.2018 44.5171 47.1743 47.3107 51.7294 49.7916C57.5229 52.9377 64.0596 62.2297 67.0734 69.4797C70.2798 77.182 72 87.3719 72 87.3719V87.3653Z" fill="white"/>
<path d="M25.6927 87.3656C25.6927 87.3656 25.5688 78.8917 25.6651 76.0715C25.8027 71.7748 27.0069 57.1816 27.0069 57.1816C27.0069 57.1816 28.1628 57.4876 28.7615 57.3612C29.4716 57.1293 30.1717 56.8697 30.8601 56.583C30.8601 56.583 33.9151 63.6667 34.5482 66.141C35.6216 70.3181 36.8394 83.2018 36.8394 83.2018L37.0321 87.3656H25.6927Z" fill="black"/>
<path fill-rule="evenodd" clip-rule="evenodd" d="M70.3624 82.2106C70.7408 83.9267 71.1193 85.6494 71.5665 87.3654C71.883 87.3654 72.1239 87.3654 72.344 87.3056C71.9871 85.9777 71.7182 84.6292 71.539 83.2682C71.4014 82.3968 71.2638 81.5255 71.0849 80.6741C70.6582 78.6521 70.1766 76.6501 69.5711 74.6879C68.883 72.453 68.0986 70.2315 67.1422 68.0831C66.2049 65.8383 65.0964 63.664 63.8257 61.578C62.0281 58.7497 59.9717 56.0829 57.6812 53.6097C55.094 50.8228 51.805 49.0535 48.4128 47.5303C46.0689 46.422 43.6479 45.473 41.1674 44.6902C39.406 44.1714 37.5894 43.8654 35.7316 43.8787C35.3188 43.8787 35.0917 44.1182 35.3532 44.3842C35.9174 44.9563 35.5183 45.1691 35.1261 45.3753C34.9164 45.4762 34.712 45.5872 34.5138 45.7079C33.8862 46.0904 33.2282 46.424 32.5459 46.7056C32.2225 46.8253 31.9128 46.9849 31.6032 47.1512C31.0115 47.4705 30.4128 47.7897 29.7248 47.7764C29.2431 47.7698 28.7683 47.7764 28.2936 47.7964L27.2821 47.8163C26.7867 47.8163 26.2982 47.7365 25.8372 47.5636C24.9395 47.2162 24.0739 46.7957 23.25 46.3065C22.6445 45.9739 22.039 45.6347 21.406 45.3487L20.6078 44.9962C19.2909 44.472 18.0341 43.8166 16.8578 43.0407C16.5 42.7879 16.156 42.9209 15.867 43.0939C14.8693 43.6925 13.7752 44.065 12.6812 44.4374C11.7179 44.77 10.7546 45.0959 9.86008 45.5682C7.98164 46.5659 6.0344 47.4572 4.09403 48.3485C0.481646 49.9913 -2.42203 52.5455 -5.04358 55.4255C-6.48854 57.0085 -7.79588 58.7046 -8.9656 60.4939C-11.3747 64.2264 -13.315 68.2233 -14.7454 72.3998L-14.828 72.6326C-15.3602 74.0689 -15.8195 75.5296 -16.2041 77.0092C-16.3142 77.4881 -16.445 77.9604 -16.5688 78.4326C-16.7752 79.2175 -16.9817 79.9957 -17.1468 80.7872C-17.5803 82.9755 -17.945 85.1771 -18.2615 87.3721C-17.828 87.3721 -17.4633 87.3721 -17.0849 87.2989C-16.9954 86.7402 -16.9197 86.1948 -16.844 85.656C-16.6927 84.5985 -16.5482 83.5608 -16.3211 82.5432L-16.1422 81.7051C-15.7018 79.6698 -15.2684 77.6345 -14.5872 75.6524C-14.5184 75.4794 -14.4633 75.2998 -14.4014 75.1202C-13.7477 73.2179 -13.094 71.309 -12.2959 69.4599C-11.4911 67.6138 -10.5932 65.8069 -9.60551 64.0457C-7.64191 60.4564 -5.16326 57.1535 -2.24313 54.2349C-0.075695 52.0799 2.40137 50.3106 5.20183 49.0136C5.36009 48.9471 5.52522 48.854 5.68348 48.7675C6.31651 48.4283 6.99082 48.0624 7.7477 48.3485C9.29587 48.9205 10.844 49.5324 12.3096 50.2774C14.2913 51.2751 16.2385 52.3326 18.1927 53.3902C18.7982 53.7228 19.4037 54.0553 20.0092 54.3746L20.0436 54.3946C21.406 55.1262 21.406 55.1262 22.2729 53.8891L22.328 53.8691L22.3624 53.8558C23.0092 54.1218 23.5872 54.5209 24.1651 54.9067C24.4954 55.1262 24.8188 55.3457 25.1628 55.5452C26.5665 56.3767 26.6972 56.7092 26.1674 58.1127C25.8578 58.9308 25.5619 59.7556 25.2592 60.5737C24.8601 61.6645 24.461 62.7553 24.0482 63.8329C22.9438 66.6496 22.0245 69.5309 21.2959 72.4597C20.9381 73.9363 21.2408 74.4684 22.6514 75.1868C22.9816 75.3597 23.3188 75.5193 23.656 75.6856L24.7431 76.231C25.1078 76.4173 25.3142 76.6966 25.2729 77.129C25.0183 79.7496 24.9289 82.3835 24.9151 85.0175C24.9151 85.4299 24.867 85.8423 24.8188 86.2546C24.7706 86.6271 24.7294 86.9996 24.7156 87.3654H25.6995C26.0986 83.7338 26.2225 80.0955 26.3463 76.4439C26.4083 74.6147 26.5527 72.7856 26.6904 70.9565C26.7798 69.9122 26.8555 68.8613 26.9243 67.817C26.9794 67.0189 26.9931 66.2141 27 65.4092C27.0206 64.1987 27.0413 62.9948 27.1858 61.7909C27.3096 60.8397 27.3991 59.8819 27.4954 58.8975L27.633 57.534C28.8027 57.9996 29.7248 57.554 30.6193 57.0019C31.1147 57.401 31.3211 57.9331 31.5138 58.4519L31.6858 58.8709C32.6216 61.0127 33.2339 63.2608 33.8188 65.5157C34.1353 66.7129 34.4381 67.9102 34.6583 69.134L34.7477 69.6528V69.6794C35.1605 72.0007 35.5734 74.3221 35.8624 76.6634C36.117 78.7918 36.2615 80.9402 36.4128 83.0819L36.5711 85.4432C36.5917 85.6693 36.5917 85.8955 36.5986 86.1283C36.6055 86.5007 36.6193 86.8865 36.6743 87.2923C37.0115 87.3654 37.2523 87.3654 37.5206 87.2923C37.7133 82.9223 37.1766 78.6854 36.6124 74.4485L36.4954 73.6104C36.4266 73.1315 36.3578 72.6592 36.3027 72.1803C36.1501 70.8616 35.925 69.5517 35.6284 68.256C35.4908 67.6707 35.3188 67.0854 35.1399 66.5001C34.9335 65.8416 34.7408 65.1831 34.5963 64.5046C34.3417 63.2542 33.9083 62.0636 33.4748 60.873C32.9791 59.4312 32.3263 58.0443 31.5275 56.7358C31.4037 56.5363 31.2798 56.2636 31.555 56.1372C32.195 55.8712 32.6972 55.4189 33.2064 54.9666C33.6743 54.5542 34.1422 54.1352 34.7202 53.8425L34.844 54.1418C34.9335 54.3413 35.0161 54.5409 35.1193 54.7138C35.711 55.7182 36.0138 55.778 36.9495 55.0663C37.5138 54.6473 38.1055 54.2682 38.6972 53.8891C39.3509 53.4767 40.0046 53.0643 40.6101 52.592C41.4358 51.9468 42.3372 51.4014 43.2454 50.8627C44.2679 50.286 45.2433 49.6345 46.1628 48.9138C47.8142 47.5503 50.4289 49.3395 53.5803 51.4879L53.6216 51.5212C56.6078 53.5565 58.8509 56.3102 60.9151 59.1835C62.3494 61.2332 63.6324 63.378 64.7546 65.6021C65.9037 67.8104 66.8876 70.0918 67.6858 72.4331C68.8067 75.6302 69.7032 78.8968 70.3693 82.2106H70.3624ZM21.2339 53.1441C21.0826 53.4035 20.945 53.5565 20.6284 53.4301C19.0665 52.7051 17.5734 51.9003 16.0872 51.0888C13.6995 49.7852 11.3394 48.5014 8.77293 47.6567C8.77293 47.3241 8.93807 47.2443 9.08256 47.1778L9.11008 47.1712C10.0115 46.7721 10.8853 46.3131 11.7316 45.8076C12.2004 45.5117 12.7474 45.3523 13.3073 45.3487C14.6835 45.3487 16.0596 45.3287 17.2982 44.617C17.6284 44.4374 17.9587 44.5306 18.2959 44.7168L19.383 45.3287C20.8968 46.1934 22.4243 47.0448 24.0275 47.7498C24.3372 47.8829 24.6468 48.0558 24.8257 48.3817C23.424 49.8128 22.217 51.4109 21.2339 53.1374V53.1441ZM38.828 52.6386C39.9289 51.7207 41.1674 50.9757 42.3922 50.2308C43.4931 49.5657 44.594 48.9005 45.5849 48.1157C45.4885 47.8363 45.3234 47.7166 45.1583 47.6102C45.1281 47.5884 45.0983 47.5663 45.0688 47.5436C43.9197 46.6923 42.5917 46.2267 41.25 45.7611C40.8027 45.6014 40.3555 45.4485 39.9151 45.2755C39.2821 45.0294 38.5115 44.7634 37.7202 45.1891L36.7638 45.7079C35.4103 46.5005 33.9902 47.1813 32.5183 47.7432C32.0642 47.9028 32.0092 48.1157 32.2982 48.5014C32.5734 48.8673 32.828 49.2397 33.0826 49.6189C33.3922 50.0579 33.695 50.4968 34.0183 50.9225C34.5826 51.6542 35.1674 52.3858 35.7523 53.0975L36.4954 54.0154C37.2867 53.5631 38.0092 53.1441 38.828 52.6452V52.6386ZM26.3119 49.1865C26.6904 48.9072 27.1032 48.701 27.6055 48.7675C29.2844 48.5413 30.633 48.9005 31.8372 49.8384C32.6628 50.4835 32.711 50.9425 32.0711 51.7673C31.9197 51.9668 31.7959 52.1796 31.672 52.3925C31.4656 52.765 31.2592 53.1241 30.9014 53.3902C29.6835 52.7517 28.4725 52.592 27.2339 53.2904C26.8624 53.5033 26.5872 53.3902 26.305 53.1108C25.9292 52.7425 25.5484 52.3788 25.1628 52.02L24.6261 51.5145C24.2202 51.1354 24.0963 50.8161 24.695 50.4503C25.0596 50.2175 25.383 49.9448 25.7271 49.6654C25.9128 49.5058 26.1124 49.3395 26.3119 49.1865ZM24.6399 75.0803C24.8463 75.1934 25.0734 75.3065 25.4105 75.3065L25.5688 71.4686C25.7064 68.1163 25.844 64.7707 26.1055 61.4251C25.7821 62.0968 25.5275 62.7886 25.2798 63.4737L24.9083 64.4581C23.8005 67.2716 22.9472 70.165 22.2248 73.0849C22.1147 73.5173 22.1284 73.8831 22.5688 74.1026C23.1124 74.3686 23.656 74.6347 24.3234 74.9407C24.4335 74.9739 24.5298 75.0271 24.6399 75.0803ZM28.6651 53.7095C29.0414 53.6318 29.4333 53.669 29.7867 53.8159C30.6812 54.6606 30.7982 55.3257 30.2408 55.9443C29.4771 56.809 28.3073 57.0684 27.5298 56.543C26.9381 56.1372 26.8417 55.5186 27.0275 54.9466C27.2615 54.215 27.922 53.8491 28.6651 53.7095ZM25.8096 54.8735C26.5183 54.787 26.1743 54.2948 26.0023 54.1352C25.383 53.5498 24.7431 52.9978 24.0482 52.4058L23.25 51.7207C23.2087 52.04 23.0505 52.2528 22.906 52.4657C22.8082 52.5906 22.723 52.7242 22.6514 52.8647L22.6651 52.878C23.6972 53.5432 24.7087 54.1817 25.8096 54.8735ZM32.3119 53.2106L32.5872 52.8913L32.7729 52.5854C32.9518 52.2861 33.1032 52.0333 33.3509 51.8537C34.211 52.6718 34.211 52.9712 33.3853 53.5964C33.3027 53.6629 33.2202 53.7161 33.1307 53.776C32.9381 53.9157 32.7385 54.0553 32.5734 54.2283C32.3257 54.4744 32.0849 54.7072 31.6995 54.8402C31.3349 54.5475 31.3761 54.2549 31.6789 53.929C31.8991 53.6962 32.1055 53.4567 32.3119 53.2106Z" fill="black"/>
<path d="M8.24999 8.12778C9.33026 5.06815 11.25 2.68696 13.7615 0.67824C15.9907 -1.10293 18.5303 -2.48586 21.2615 -3.4057C23.9317 -4.31859 26.7149 -4.88665 29.539 -5.09515C32.1881 -5.28804 34.8234 -5.22818 37.4105 -4.8291C39.4335 -4.50983 41.6215 -3.29928 42.0206 -0.745154C42.0894 -0.346072 49.7477 -1.61648 51.9908 1.87549C52.5105 2.80246 52.7264 3.8602 52.6101 4.90851C52.3417 7.38283 49.6858 8.75301 47.9312 9.51792C44.1468 11.1608 41.2225 9.83053 39.1926 10.4358C36.4335 11.2606 33.6193 11.7993 30.6812 11.8126C27.3647 11.8259 24.3578 10.9945 21.5092 9.44475C21.2615 9.31173 20.9931 9.192 20.7523 9.07893C20.4082 9.26517 20.3807 9.58443 20.3876 9.84384C20.4014 12.1519 19.4105 14.0808 17.9931 15.8633C17.286 16.8338 16.8134 17.9453 16.6101 19.1159C16.4037 20.047 16.2454 21.0115 15.8188 21.8828C15.633 22.2686 15.3853 22.7675 14.7867 22.6145C14.2362 22.4748 14.2225 21.9427 14.25 21.5569C14.3326 20.2466 13.672 19.2156 13.0252 18.1714C11.8555 16.2824 9.8532 15.9498 8.37384 17.892C8.10549 18.2512 7.90595 18.7234 7.13531 18.5372C6.86696 15.0585 6.87384 11.5665 8.24999 8.12778Z" fill="black"/>
<path d="M35.422 35.7845C35.2018 35.5983 35.0092 35.3588 34.7546 35.2458C33.516 34.6804 32.594 33.8024 31.7271 32.7914C30.7638 31.6806 29.8004 30.5033 28.3555 29.9047C27.805 29.6719 27.2339 29.3859 26.656 29.9047C25.9404 30.5366 25.0871 31.1286 25.2798 32.1994C25.4518 33.1306 26.0367 33.8357 26.8349 34.4476C28.6582 35.851 30.8257 36.2102 33.0275 36.4896C33.8394 36.596 34.7683 36.5893 35.422 35.7845Z" fill="white"/>
<path fill-rule="evenodd" clip-rule="evenodd" d="M31.6376 31.5209C31.1999 30.8973 30.6386 30.3637 29.9862 29.9512C29.6972 29.6585 29.3532 29.5321 29.0229 29.419C28.8853 29.3658 28.7477 29.3193 28.6238 29.2594C27.1101 28.5743 25.3142 29.306 24.6743 30.8092C24.4051 31.484 24.3675 32.2245 24.567 32.9216C24.7665 33.6186 25.1925 34.2352 25.7821 34.6803C27.2064 35.8576 28.9128 36.6757 30.7431 37.0548C32.305 37.3874 33.8394 37.5736 35.4151 37.0881C36.0206 36.9018 36.516 36.6158 36.5917 35.9906C36.6674 35.4452 36.3509 35.0328 35.8486 34.7468C35.7454 34.6869 35.6491 34.6138 35.5527 34.534C35.4495 34.4541 35.3463 34.3743 35.2225 34.3078C33.8807 33.5629 32.594 32.778 31.6445 31.5142L31.6376 31.5209ZM35.2156 35.5982L35.422 35.7844C34.7683 36.5892 33.8394 36.5959 33.0206 36.4895C30.8326 36.2101 28.6583 35.8509 26.828 34.4475C26.0387 33.9122 25.4861 33.1098 25.2798 32.1993C25.1078 31.2482 25.7683 30.6629 26.422 30.1108L26.656 29.9112C27.2064 29.419 27.7362 29.6452 28.2592 29.8647L28.3624 29.9046C29.7316 30.4766 30.6605 31.5541 31.5688 32.6117L31.7202 32.7913C32.531 33.8184 33.5674 34.6589 34.7546 35.2523C34.9266 35.3321 35.0711 35.4651 35.2156 35.6048V35.5982Z" fill="black"/>
<path d="M36.1101 20.8517C36.4197 20.3329 36.6605 19.8473 36.9839 19.4083C37.1904 19.129 37.5344 18.9161 37.8784 19.2021C38.2156 19.4682 37.8784 19.681 37.7408 19.9138C36.6616 21.5859 35.9301 23.4452 35.5871 25.3879C36.4816 25.2549 37.3073 25.2948 37.6789 26.1196C38.0642 26.9643 37.5069 27.6627 36.9495 28.2347C36.4472 28.7469 35.8073 29.1327 34.9541 28.7469C34.9404 27.6693 36.7844 27.7359 36.5092 26.5386C36.3303 26.3657 36.1995 26.4255 36.055 26.4588C34.6995 26.7448 34.4862 26.6184 34.6582 25.2482C34.893 23.7186 35.3833 22.236 36.1101 20.8583V20.8517Z" fill="black"/>
<path d="M40.844 23.6123C40.555 22.9804 40.1628 22.6012 39.4816 22.568C39.0688 22.548 39 22.2288 38.8693 21.9162C39.0069 21.8164 39.1101 21.6701 39.2339 21.6634C40.6858 21.5503 42.1514 21.5437 43.6032 21.6567C44.0161 21.6834 44.2431 22.1889 43.8234 22.3485C43.1353 22.6145 42.9633 23.2265 42.5505 23.6655C41.9862 24.2641 41.5046 24.2707 40.844 23.6123ZM27.7018 21.6434C28.5413 21.69 29.2913 21.71 30.0413 21.7765C30.289 21.7964 30.5917 21.8962 30.5917 22.2221C30.5917 22.5946 30.2752 22.568 30.0206 22.5613C29.5872 22.5613 29.3532 22.7409 29.1605 23.1334C28.9266 23.6256 28.6858 24.151 27.922 24.1178C27.1995 24.0845 26.883 23.6389 26.6766 23.1067C26.5252 22.7276 26.3326 22.548 25.9197 22.5613C25.6858 22.568 25.4312 22.548 25.4037 22.2354C25.3761 21.9028 25.6101 21.8363 25.8853 21.7565C26.4773 21.6041 27.0945 21.5656 27.7018 21.6434Z" fill="black"/>
<path d="M43.555 16.6682C43.7339 17.1538 43.9335 17.5662 44.0367 17.9985C44.1193 18.3244 44.1537 18.6903 43.6926 18.8366C43.1697 19.0095 43.1009 18.6104 42.9633 18.3178C42.8166 18.011 42.6902 17.6955 42.5849 17.3733C42.4816 17.0474 42.289 16.9077 41.9381 16.921C41.594 16.9276 41.3876 17.1205 41.2982 17.3999C41.1812 17.7524 41.0917 18.1116 41.0229 18.4708C40.9541 18.7701 40.7339 18.79 40.4862 18.7767C40.2385 18.7701 40.1215 18.6437 40.0803 18.4109C39.8601 17.074 40.5 15.8701 41.8624 15.6705C42.7018 15.5375 43.1697 15.9698 43.5482 16.6682H43.555ZM26.7385 16.8944C27.7775 15.5309 28.7615 15.2648 29.766 16.1428C30.3922 16.6948 30.3647 17.5529 30.5023 18.3111C30.5367 18.5107 30.3647 18.6903 30.1376 18.7302C29.8968 18.7767 29.656 18.6503 29.5596 18.4375C29.4426 18.1714 29.4082 17.8854 29.3119 17.626C29.1949 17.3068 29.0917 16.9609 28.6445 16.9276C28.2041 16.8944 27.9151 17.1272 27.7362 17.4597C27.4885 17.9386 27.406 18.79 26.656 18.4375C25.9404 18.1049 26.5252 17.4597 26.7385 16.8944Z" fill="black"/>
<path d="M88.6239 87.4322L72.3922 87.6051C72.3922 87.6051 67.9679 82.5966 70.2454 69.3737C70.5757 67.4581 69.1858 55.3925 69.1445 54.4746C69.0138 52.0602 68.1124 47.4241 66.9151 45.595C61.5482 37.3473 62.4014 36.1102 62.1468 34.2411C61.8784 32.2657 61.4243 28.8402 61.094 27.5232C60.9427 26.9113 59.8417 22.5946 61.0734 22.4682C66.9358 21.8563 64.9679 32.565 67.2248 31.6936C70.6789 30.3634 71.6284 26.1331 71.6284 26.1331C71.6284 26.1331 76.7959 14.7459 79.156 14.7459C80.1193 14.7459 78.6537 20.6324 78.6537 20.6324C78.6537 20.6324 84.0069 14.5664 85.156 14.6329C86.305 14.6994 84.3165 19.3221 84.3165 19.3221C84.3165 19.3221 86.828 17.4464 87.7431 18.1248C88.9541 19.0294 82.5138 28.1817 83.4633 28.2349C84.1858 28.2682 85.5826 25.9735 86.4908 25.5877C88.0046 24.9225 88.5482 24.8028 88.6032 26.1397C88.672 27.5565 85.3211 31.8333 83.7661 34.2411C82.961 35.4849 78.1995 42.715 77.1606 44.7037C75.8395 47.2113 78.4335 51.4216 79.4862 53.4503C80.5321 55.479 84.5849 67.2319 86.0161 69.367C87.4404 71.5088 88.8234 74.9475 89.2982 78.5925C89.8142 82.6299 88.6307 87.4322 88.6307 87.4322H88.6239Z" fill="white"/>
</g>
</g>
<defs>
<clipPath id="clip0_1_269">
<path d="M0 29C0 12.9837 12.9837 0 29 0H31C47.0163 0 60 12.9837 60 29C60 45.0163 47.0163 58 31 58H29C12.9837 58 0 45.0163 0 29Z" fill="white"/>
</clipPath>
</defs>
</svg>
