<svg width="23" height="20" viewBox="0 0 23 20" fill="none" xmlns="http://www.w3.org/2000/svg">
<path d="M23 20H0.5V0H23V20Z" stroke="#E5E7EB"/>
<path d="M21.9709 4.84699C21.7255 3.92316 21.0026 3.19559 20.0848 2.94867C18.4211 2.5 11.75 2.5 11.75 2.5C11.75 2.5 5.0789 2.5 3.41519 2.94867C2.49734 3.19563 1.77445 3.92316 1.52909 4.84699C1.08331 6.52148 1.08331 10.0152 1.08331 10.0152C1.08331 10.0152 1.08331 13.5088 1.52909 15.1833C1.77445 16.1071 2.49734 16.8044 3.41519 17.0513C5.0789 17.5 11.75 17.5 11.75 17.5C11.75 17.5 18.4211 17.5 20.0848 17.0513C21.0026 16.8044 21.7255 16.1071 21.9709 15.1833C22.4167 13.5088 22.4167 10.0152 22.4167 10.0152C22.4167 10.0152 22.4167 6.52148 21.9709 4.84699ZM9.56816 13.1871V6.84316L15.1439 10.0152L9.56816 13.1871Z" fill="#A3A3A3"/>
</svg>
