<svg width="20" height="20" viewBox="0 0 20 20" fill="none" xmlns="http://www.w3.org/2000/svg">
<g clip-path="url(#clip0_1_456)">
<path d="M9.16016 0.222656C9.70312 0.0273437 10.2969 0.0273437 10.8438 0.222656L18.3438 2.90234C19.3359 3.25781 20 4.19922 20 5.25781V14.7422C20 15.7969 19.3359 16.7422 18.3398 17.0977L10.8398 19.7773C10.2969 19.9727 9.70312 19.9727 9.15625 19.7773L1.65625 17.0977C0.664063 16.7422 0 15.8008 0 14.7422V5.25781C0 4.20313 0.664062 3.25781 1.66016 2.90234L9.16016 0.222656ZM10 2.57813L3.21484 5L10 7.42188L16.7852 5L10 2.57813ZM11.25 16.9766L17.5 14.7461V7.40234L11.25 9.63281V16.9766Z" fill="white"/>
</g>
<defs>
<clipPath id="clip0_1_456">
<path d="M0 0H20V20H0V0Z" fill="white"/>
</clipPath>
</defs>
</svg>
