<svg width="38" height="31" viewBox="0 0 38 31" fill="none" xmlns="http://www.w3.org/2000/svg">
<g clip-path="url(#clip0_1_430)">
<path d="M2.5234 1.04891C1.91403 0.568445 1.02926 0.679773 0.548791 1.28915C0.0683225 1.89852 0.179651 2.78329 0.789026 3.26376L35.4765 30.4513C36.0859 30.9317 36.9707 30.8204 37.4511 30.211C37.9316 29.6016 37.8203 28.7169 37.2109 28.2364L26.0664 19.5001H36.5019C37.1933 19.5001 37.75 18.9376 37.75 18.252C37.75 14.8009 34.9492 12.0001 31.498 12.0001H29.0019C28.0703 12.0001 27.1855 12.2052 26.3886 12.5684C26.4648 12.9903 26.5 13.4298 26.5 13.8751C26.5 15.6446 25.8847 17.2735 24.8593 18.5567L23.3828 17.4024C24.1621 16.4356 24.625 15.211 24.625 13.8751C24.625 10.7696 22.1054 8.25008 19 8.25008C17.1777 8.25008 15.5605 9.11727 14.5293 10.4591L12.1504 8.59579C12.9121 7.76376 13.375 6.65634 13.375 5.43759C13.375 2.84774 11.2773 0.750085 8.68746 0.750085C7.06442 0.750085 5.63473 1.57626 4.79098 2.83016L2.5234 1.04891ZM6.50192 12.0001C3.05074 12.0001 0.249963 14.8009 0.249963 18.252C0.249963 18.9376 0.812463 19.5001 1.49801 19.5001H14.0019C14.0136 19.5001 14.0254 19.5001 14.0429 19.5001C12.8359 18.4337 11.9804 16.9923 11.6523 15.3516L7.38668 12.0001H6.50192ZM15.5605 21.3751C11.248 21.3751 7.74996 24.8731 7.74996 29.1856C7.74996 30.047 8.44723 30.7501 9.31441 30.7501H28.6855C29.3007 30.7501 29.8281 30.3985 30.0859 29.8829L19.2871 21.3751H15.5605ZM30.25 10.1251C31.4932 10.1251 32.6854 9.63122 33.5645 8.75215C34.4436 7.87307 34.9375 6.68079 34.9375 5.43759C34.9375 4.19438 34.4436 3.0021 33.5645 2.12302C32.6854 1.24395 31.4932 0.750085 30.25 0.750085C29.0068 0.750085 27.8145 1.24395 26.9354 2.12302C26.0563 3.0021 25.5625 4.19438 25.5625 5.43759C25.5625 6.68079 26.0563 7.87307 26.9354 8.75215C27.8145 9.63122 29.0068 10.1251 30.25 10.1251Z" fill="#374151"/>
</g>
<defs>
<clipPath id="clip0_1_430">
<path d="M0.25 0.75H37.75V30.75H0.25V0.75Z" fill="white"/>
</clipPath>
</defs>
</svg>
