<svg width="28" height="31" viewBox="0 0 28 31" fill="none" xmlns="http://www.w3.org/2000/svg">
<g clip-path="url(#clip0_1_405)">
<path d="M14 15.75C15.9891 15.75 17.8968 14.9598 19.3033 13.5533C20.7098 12.1468 21.5 10.2391 21.5 8.25C21.5 6.26088 20.7098 4.35322 19.3033 2.9467C17.8968 1.54018 15.9891 0.75 14 0.75C12.0109 0.75 10.1032 1.54018 8.6967 2.9467C7.29018 4.35322 6.5 6.26088 6.5 8.25C6.5 10.2391 7.29018 12.1468 8.6967 13.5533C10.1032 14.9598 12.0109 15.75 14 15.75ZM8.375 18.9844C4.03906 20.2559 0.875 24.2637 0.875 29.0098C0.875 29.9707 1.6543 30.75 2.61523 30.75H25.3848C26.3457 30.75 27.125 29.9707 27.125 29.0098C27.125 24.2637 23.9609 20.2559 19.625 18.9844V21.9609C21.2422 22.377 22.4375 23.8477 22.4375 25.5938V27.9375C22.4375 28.4531 22.0156 28.875 21.5 28.875H20.5625C20.0469 28.875 19.625 28.4531 19.625 27.9375C19.625 27.4219 20.0469 27 20.5625 27V25.5938C20.5625 24.5566 19.7246 23.7188 18.6875 23.7188C17.6504 23.7188 16.8125 24.5566 16.8125 25.5938V27C17.3281 27 17.75 27.4219 17.75 27.9375C17.75 28.4531 17.3281 28.875 16.8125 28.875H15.875C15.3594 28.875 14.9375 28.4531 14.9375 27.9375V25.5938C14.9375 23.8477 16.1328 22.377 17.75 21.9609V18.6152C17.3984 18.5801 17.041 18.5625 16.6777 18.5625H11.3223C10.959 18.5625 10.6016 18.5801 10.25 18.6152V22.4473C11.6035 22.8516 12.5938 24.1055 12.5938 25.5938C12.5938 27.4043 11.123 28.875 9.3125 28.875C7.50195 28.875 6.03125 27.4043 6.03125 25.5938C6.03125 24.1055 7.02148 22.8516 8.375 22.4473V18.9844ZM9.3125 27C9.68546 27 10.0431 26.8518 10.3069 26.5881C10.5706 26.3244 10.7188 25.9667 10.7188 25.5938C10.7188 25.2208 10.5706 24.8631 10.3069 24.5994C10.0431 24.3357 9.68546 24.1875 9.3125 24.1875C8.93954 24.1875 8.58185 24.3357 8.31813 24.5994C8.05441 24.8631 7.90625 25.2208 7.90625 25.5938C7.90625 25.9667 8.05441 26.3244 8.31813 26.5881C8.58185 26.8518 8.93954 27 9.3125 27Z" fill="#374151"/>
</g>
<defs>
<clipPath id="clip0_1_405">
<path d="M0.875 0.75H27.125V30.75H0.875V0.75Z" fill="white"/>
</clipPath>
</defs>
</svg>
